<?xml version="1.0" encoding="UTF-8"?>
<svg version="1.1" xmlns="http://www.w3.org/2000/svg" width="153" height="85">
<path d="M0 0 C1.75756836 1.17138672 1.75756836 1.17138672 3.52734375 2.8046875 C4.21892578 3.44051758 4.91050781 4.07634766 5.62304688 4.73144531 C6.40744141 5.48006836 7.19183594 6.22869141 8 7 C8.91845703 7.87495117 9.83691406 8.74990234 10.78320312 9.65136719 C13.33730465 12.10426092 15.86154904 14.5858444 18.37524414 17.08007812 C19.42488395 18.11807167 20.47900667 19.15154975 21.53735352 20.18066406 C23.08555006 21.68629768 24.62015955 23.2046574 26.15234375 24.7265625 C27.05976318 25.61939941 27.96718262 26.51223633 28.90209961 27.43212891 C31.08692677 30.10640007 31.81070993 31.58256648 32 35 C30.875 36.875 30.875 36.875 29 38 C23.97505832 37.80727896 21.38810393 34.92578186 18.078125 31.50390625 C17.53267029 30.95516342 16.98721558 30.40642059 16.42523193 29.84104919 C15.27766253 28.68308193 14.13486239 27.52037111 12.99658203 26.35327148 C11.25097277 24.56349738 9.49226473 22.78750131 7.73046875 21.01367188 C6.61640604 19.88618829 5.50309812 18.75795829 4.390625 17.62890625 C3.86462708 17.09552139 3.33862915 16.56213654 2.79669189 16.0125885 C-0.88158657 12.23682686 -0.88158657 12.23682686 -2 10 C-11.27428723 11.45575232 -21.41790257 22.6796481 -26.80712891 30.00634766 C-33.82740759 41.22718861 -30.50351433 58.51228267 -29 71 C-28.3927861 71.00808685 -27.7855722 71.01617371 -27.15995789 71.02450562 C-20.84966809 71.11045023 -14.5396961 71.20994926 -8.22973633 71.31738281 C-5.87367076 71.35570602 -3.517546 71.39055294 -1.16137695 71.421875 C2.22205787 71.46745274 5.60508408 71.52545952 8.98828125 71.5859375 C10.04461258 71.59748871 11.10094391 71.60903992 12.18928528 71.62094116 C13.17007553 71.64081085 14.15086578 71.66068054 15.16137695 71.68115234 C16.02519485 71.69447601 16.88901276 71.70779968 17.77900696 71.7215271 C20 72 20 72 23 74 C23.1875 77.125 23.1875 77.125 23 80 C20.53022071 81.23488965 18.8573838 81.14682543 16.09472656 81.17700195 C15.07316467 81.18983719 14.05160278 81.20267242 12.99908447 81.21589661 C11.33664703 81.22697701 11.33664703 81.22697701 9.640625 81.23828125 C8.5034906 81.246353 7.3663562 81.25442474 6.19476318 81.26274109 C3.78382903 81.27659098 1.37287519 81.28730907 -1.03808594 81.29516602 C-4.7210828 81.31236496 -8.40317903 81.3562429 -12.0859375 81.40039062 C-14.42707672 81.41051853 -16.76822359 81.41903433 -19.109375 81.42578125 C-20.75966705 81.45204338 -20.75966705 81.45204338 -22.44329834 81.47883606 C-28.57819878 81.46148102 -32.42542894 81.27025611 -37 77 C-38.63934952 74.25316685 -39.26456608 72.13993468 -39.36987305 68.95678711 C-39.41322029 67.77922096 -39.41322029 67.77922096 -39.45744324 66.5778656 C-39.53399851 62.98037028 -39.60702854 59.38354421 -39.64526367 55.78540039 C-39.67324128 53.89893321 -39.72084324 52.01264696 -39.78881836 50.12719727 C-40.42175123 32.49638012 -40.42175123 32.49638012 -35.109375 25.85546875 C-33.4478647 24.19428639 -31.74303265 22.57543025 -30 21 C-28.26785819 19.19941739 -26.54003464 17.39467136 -24.81640625 15.5859375 C-23.07029888 13.84373641 -21.31898105 12.10674188 -19.5625 10.375 C-18.66595703 9.47910156 -17.76941406 8.58320313 -16.84570312 7.66015625 C-7.54365252 -1.57880584 -7.54365252 -1.57880584 0 0 Z " fill="#1A45F4" transform="translate(40,1)"/>
<path d="M0 0 C2.97 0 5.94 0 9 0 C9.71614583 1.69270833 10.43229167 3.38541667 11.1484375 5.078125 C12.03806401 7.08590592 13.00418825 9.04301344 14 11 C14.20496094 10.28972656 14.40992187 9.57945313 14.62109375 8.84765625 C14.89050781 7.92855469 15.15992187 7.00945313 15.4375 6.0625 C15.70433594 5.14597656 15.97117187 4.22945312 16.24609375 3.28515625 C17 1 17 1 18 0 C20.67058851 -0.14115161 23.32432238 -0.04247107 26 0 C27.32 3.63 28.64 7.26 30 11 C31.65 7.37 33.3 3.74 35 0 C37.64 0 40.28 0 43 0 C41.68764148 6.36430174 39.98780585 12.42121028 37.875 18.5625 C37.59785156 19.38041016 37.32070312 20.19832031 37.03515625 21.04101562 C36.36094863 23.02876568 35.68107796 25.01459349 35 27 C32.03 27 29.06 27 26 27 C23.125 19.375 23.125 19.375 22 16 C20.68 19.63 19.36 23.26 18 27 C15.03 27 12.06 27 9 27 C6.23700145 21.92205671 4.50692951 16.7474824 2.8125 11.25 C2.40354492 9.95642578 2.40354492 9.95642578 1.98632812 8.63671875 C0 2.27449483 0 2.27449483 0 0 Z " fill="#FFFFFF" transform="translate(55,42)"/>
<path d="M0 0 C0.71671875 -0.020625 1.4334375 -0.04125 2.171875 -0.0625 C6.75459888 -0.0961965 9.59310701 0.46476865 13.25 3.25 C15.66181471 5.66181471 16.20578124 6.82549989 16.5625 10.25 C16.13716341 14.33323128 15.13185821 16.36814179 12.25 19.25 C12.91 20.013125 13.57 20.77625 14.25 21.5625 C16.25 24.25 16.25 24.25 16.25 27.25 C13.17660687 27.60462228 10.30815336 27.7843832 7.25 27.25 C4.875 24.3125 4.875 24.3125 3.25 21.25 C2.26 20.92 1.27 20.59 0.25 20.25 C0.25 22.56 0.25 24.87 0.25 27.25 C-2.39 27.25 -5.03 27.25 -7.75 27.25 C-8.76255033 24.21234901 -8.87900588 22.13837779 -8.8828125 18.9609375 C-8.88410156 17.93742187 -8.88539062 16.91390625 -8.88671875 15.859375 C-8.88285156 14.79203125 -8.87898438 13.7246875 -8.875 12.625 C-8.87886719 11.54992187 -8.88273437 10.47484375 -8.88671875 9.3671875 C-8.88542969 8.34625 -8.88414063 7.3253125 -8.8828125 6.2734375 C-8.88168457 5.33419434 -8.88055664 4.39495117 -8.87939453 3.42724609 C-8.58868233 -1.46439802 -3.84507631 0.027078 0 0 Z M0.25 7.25 C0.25 9.23 0.25 11.21 0.25 13.25 C1.9 13.25 3.55 13.25 5.25 13.25 C5.91 11.93 6.57 10.61 7.25 9.25 C5.41116119 6.96271266 5.41116119 6.96271266 2.625 7.125 C1.449375 7.186875 1.449375 7.186875 0.25 7.25 Z " fill="#FFFFFF" transform="translate(135.75,41.75)"/>
<path d="M0 0 C2.97 0 5.94 0 9 0 C20 21.44382022 20 21.44382022 20 27 C17.03 27 14.06 27 11 27 C10.505 24.525 10.505 24.525 10 22 C6.7 22 3.4 22 0 22 C-0.99 24.475 -0.99 24.475 -2 27 C-4.64 27 -7.28 27 -10 27 C-9.43343202 20.88106577 -6.89348871 15.67636193 -4.4375 10.125 C-4.01275391 9.15046875 -3.58800781 8.1759375 -3.15039062 7.171875 C-2.10624496 4.77855235 -1.05597786 2.38811986 0 0 Z M4 11 C3.67 12.32 3.34 13.64 3 15 C4.32 14.67 5.64 14.34 7 14 C6.01 13.01 5.02 12.02 4 11 Z " fill="#FFFFFF" transform="translate(107,42)"/>
<path d="M0 0 C1.44632813 0.25716797 1.44632813 0.25716797 2.921875 0.51953125 C3.69015625 0.73996094 4.4584375 0.96039063 5.25 1.1875 C5.58 1.8475 5.91 2.5075 6.25 3.1875 C5.31553465 5.21894641 4.31775224 7.22283587 3.25 9.1875 C-0.05 8.5275 -3.35 7.8675 -6.75 7.1875 C-6.75 7.8475 -6.75 8.5075 -6.75 9.1875 C-6.15832031 9.27386719 -5.56664062 9.36023437 -4.95703125 9.44921875 C-0.82544483 10.18387278 1.88797457 10.9340822 5.375 13.375 C7.25 16.1875 7.25 16.1875 7.4375 19.75 C6.25 23.1875 6.25 23.1875 3.875 25.625 C-1.09357827 27.76662856 -5.41373105 27.87528578 -10.75 27.1875 C-14.4375 25.6875 -14.4375 25.6875 -16.75 24.1875 C-16.09 22.2075 -15.43 20.2275 -14.75 18.1875 C-10.79 18.5175 -6.83 18.8475 -2.75 19.1875 C-4.338125 18.589375 -5.92625 17.99125 -7.5625 17.375 C-10.93451177 16.10502154 -13.5231326 15.09179631 -15.75 12.1875 C-16.25 8.8125 -16.25 8.8125 -15.75 5.1875 C-13.53270275 2.2733379 -11.98093054 0.55075943 -8.43359375 -0.49609375 C-5.40902511 -0.85270228 -2.98912292 -0.56147039 0 0 Z " fill="#FFFFFF" transform="translate(36.75,41.8125)"/>
<path d="M0 0 C2.97 0 5.94 0 9 0 C9 8.91 9 17.82 9 27 C6.03 27 3.06 27 0 27 C0 18.09 0 9.18 0 0 Z " fill="#FFFFFF" transform="translate(45,42)"/>
</svg>
