<?xml version="1.0" encoding="UTF-8"?>
<svg version="1.1" xmlns="http://www.w3.org/2000/svg" width="192" height="192">
<path d="M0 0 C5.15184548 2.88674837 8.7660331 6.69834012 12.6875 11.0625 C17.88921961 16.78597663 17.88921961 16.78597663 23.35546875 22.25390625 C23.86698486 22.7430249 24.37850098 23.23214355 24.90551758 23.73608398 C26.2899562 25.04461884 27.68754587 26.33919949 29.0859375 27.6328125 C31 30 31 30 31.4765625 32.6796875 C31 35 31 35 28 37 C23.62100569 36.92427744 21.01257808 33.42612538 18.140625 30.50390625 C17.59138367 29.95516342 17.04214233 29.40642059 16.47625732 28.84104919 C15.31959226 27.68204741 14.16660983 26.51936026 13.01708984 25.35327148 C11.25126047 23.56377736 9.47241392 21.78804682 7.69140625 20.01367188 C6.56951673 18.88620794 5.44839579 17.7579786 4.328125 16.62890625 C3.79382874 16.09552139 3.25953247 15.56213654 2.70904541 15.0125885 C-1 11.23103676 -1 11.23103676 -1 9 C-5.61397709 10.39164839 -8.13385005 12.93815794 -11.1875 16.5 C-12.04730469 17.4796875 -12.90710938 18.459375 -13.79296875 19.46875 C-14.26669922 20.0251416 -14.74042969 20.5815332 -15.22851562 21.15478516 C-17 23 -17 23 -19.55273438 24.98193359 C-23.8510843 28.52738296 -27.02910861 31.53959209 -27.89624023 37.17480469 C-28.32220662 41.99378345 -28.23490621 46.79386421 -28.125 51.625 C-28.12305475 53.31380297 -28.12562199 55.00261747 -28.1328125 56.69140625 C-28.14057875 60.79625297 -28.08726242 64.89611861 -28 69 C-27.39056549 69.00808685 -26.78113098 69.01617371 -26.15322876 69.02450562 C-19.82687016 69.11036845 -13.50083154 69.20986327 -7.17480469 69.31738281 C-4.81190349 69.35573527 -2.44894266 69.39057692 -0.0859375 69.421875 C3.3049048 69.46738966 6.69533424 69.52540619 10.0859375 69.5859375 C11.14743011 69.59748871 12.20892273 69.60903992 13.30258179 69.62094116 C14.28344757 69.64081085 15.26431335 69.66068054 16.27490234 69.68115234 C17.57396011 69.70113785 17.57396011 69.70113785 18.89926147 69.7215271 C21 70 21 70 23 72 C22.625 75.125 22.625 75.125 22 78 C14.84680328 78.10156178 7.69379305 78.17153366 0.54003906 78.21972656 C-1.89264881 78.23982071 -4.32528851 78.26710088 -6.7578125 78.30175781 C-10.25793355 78.3503706 -13.75741502 78.37299139 -17.2578125 78.390625 C-18.34240753 78.41127014 -19.42700256 78.43191528 -20.54446411 78.45318604 C-26.65598662 78.45499519 -30.43899316 78.24526632 -35 74 C-37.8518809 70.38076213 -37.37771595 65.7780653 -37.44140625 61.359375 C-37.45517807 60.51836243 -37.46894989 59.67734985 -37.48313904 58.81085205 C-37.5063834 57.03233383 -37.5236629 55.25372904 -37.53540039 53.47509766 C-37.56228004 50.77211868 -37.63719149 48.07308439 -37.71289062 45.37109375 C-37.93222421 30.87858097 -37.93222421 30.87858097 -33.68359375 25.984375 C-32.48960386 24.94916968 -31.26176057 23.95143163 -30 23 C-28.82024446 21.84657073 -27.65181531 20.68133133 -26.5 19.5 C-25.9225 18.9328125 -25.345 18.365625 -24.75 17.78125 C-22.91757513 15.91610326 -21.20646865 13.98072254 -19.5 12 C-8.52401879 -0.7103349 -8.52401879 -0.7103349 0 0 Z " fill="#0047FF" transform="translate(99,50)"/>
</svg>
