<?xml version="1.0" encoding="UTF-8"?>
<svg version="1.1" xmlns="http://www.w3.org/2000/svg" width="153" height="70">
<path d="M0 0 C2.63169292 1.41905621 4.51776298 3.31954077 6.56640625 5.4765625 C7.13076889 6.03942963 7.69513153 6.60229675 8.27659607 7.18222046 C9.45774135 8.37035282 10.62790373 9.56949521 11.78735352 10.77880859 C13.56309287 12.6256166 15.37578631 14.42887619 17.19726562 16.23046875 C18.34354534 17.3934732 19.48751045 18.5587645 20.62890625 19.7265625 C21.43963341 20.53318832 21.43963341 20.53318832 22.26673889 21.35610962 C24.80755066 24.04475166 25.95329 25.60942303 26.39819336 29.32958984 C26 32 26 32 25 33 C22.15291047 33.30387948 20.56817827 33.38735989 18.16650391 31.75 C17.60882324 31.1725 17.05114258 30.595 16.4765625 30 C15.85112549 29.36336426 15.22568848 28.72672852 14.58129883 28.07080078 C13.93572021 27.38743652 13.2901416 26.70407227 12.625 26 C11.95815186 25.31534668 11.29130371 24.63069336 10.60424805 23.92529297 C6.6861538 19.87507415 2.8786133 15.75459874 -0.60546875 11.3203125 C-2.4402717 9.58316013 -3.47272756 9.19641868 -6 9 C-8.29975215 10.58818715 -8.29975215 10.58818715 -10.4765625 12.953125 C-11.72953125 14.22349609 -11.72953125 14.22349609 -13.0078125 15.51953125 C-13.87148438 16.42058594 -14.73515625 17.32164063 -15.625 18.25 C-16.49640625 19.13558594 -17.3678125 20.02117188 -18.265625 20.93359375 C-25.47382152 27.99695847 -25.47382152 27.99695847 -27.23046875 37.56640625 C-27.22853516 38.85611328 -27.22660156 40.14582031 -27.22460938 41.47460938 C-27.21840576 42.14516357 -27.21220215 42.81571777 -27.20581055 43.5065918 C-27.18753512 45.55855703 -27.18530109 47.61007118 -27.18554688 49.66210938 C-27.51775984 56.01723777 -27.51775984 56.01723777 -26 62 C-24.06181396 62.029729 -24.06181396 62.029729 -22.08447266 62.06005859 C-17.30220655 62.13598368 -12.52024995 62.22472078 -7.73828125 62.31738281 C-5.66640319 62.35572685 -3.59445731 62.39057005 -1.52246094 62.421875 C1.45141887 62.46740809 4.42482962 62.52542118 7.3984375 62.5859375 C8.32868744 62.59748871 9.25893738 62.60903992 10.21737671 62.62094116 C11.07811798 62.64081085 11.93885925 62.66068054 12.82568359 62.68115234 C13.96485733 62.70113785 13.96485733 62.70113785 15.12704468 62.7215271 C17 63 17 63 19 65 C18.625 67.625 18.625 67.625 18 70 C11.25581973 70.12686439 4.51194756 70.21437811 -2.2331543 70.2746582 C-4.52721658 70.29978928 -6.8211989 70.33389969 -9.11499023 70.37719727 C-12.41410049 70.43790832 -15.71215146 70.46622437 -19.01171875 70.48828125 C-20.54792122 70.52699089 -20.54792122 70.52699089 -22.11515808 70.56648254 C-26.65945467 70.56826908 -29.24485247 70.48038301 -33.14086914 68.00195312 C-35.52658237 64.14972333 -35.75610133 60.88724489 -35.734375 56.48046875 C-35.74866547 55.25436638 -35.74866547 55.25436638 -35.76324463 54.00349426 C-35.77537994 52.27800687 -35.77459909 50.55238629 -35.76171875 48.8269043 C-35.75007533 46.20446645 -35.80220408 43.58852692 -35.859375 40.96679688 C-35.97115861 26.97727887 -35.97115861 26.97727887 -31.703125 22.05078125 C-30.50364126 20.99292441 -29.27256139 19.96871557 -28 19 C-27.278125 18.2575 -26.55625 17.515 -25.8125 16.75 C-25.214375 16.1725 -24.61625 15.595 -24 15 C-20.68078235 11.73867568 -17.6239066 8.3315193 -14.640625 4.76171875 C-10.14977459 -0.06059919 -6.54397227 -1.06848848 0 0 Z " fill="#1A45F5" transform="translate(35,0)"/>
<path d="M0 0 C2.64 0 5.28 0 8 0 C9.12672175 2.39503687 10.25142558 4.7909871 11.375 7.1875 C11.69210938 7.86103516 12.00921875 8.53457031 12.3359375 9.22851562 C12.8 10.21948242 12.8 10.21948242 13.2734375 11.23046875 C13.55622559 11.83270264 13.83901367 12.43493652 14.13037109 13.05541992 C15.15289951 15.3418991 16.0697756 17.674439 17 20 C17.33 13.4 17.66 6.8 18 0 C20.206875 -0.061875 22.41375 -0.12375 24.6875 -0.1875 C25.92886719 -0.22230469 27.17023438 -0.25710937 28.44921875 -0.29296875 C33.20179198 0.09915775 35.68203836 1.68203836 39 5 C39.45543071 11.94531835 39.45543071 11.94531835 37.8125 15.75 C37.544375 16.4925 37.27625 17.235 37 18 C38.30344828 20.21036291 38.30344828 20.21036291 40 22 C40 22.66 40 23.32 40 24 C36.94975136 24.28775931 34.03819925 24.45410807 31 24 C29.0625 21.5625 29.0625 21.5625 28 19 C27.34 18.67 26.68 18.34 26 18 C26 19.98 26 21.96 26 24 C20.72 24 15.44 24 10 24 C9.67 22.68 9.34 21.36 9 20 C6.03 20.33 3.06 20.66 0 21 C-0.33 21.99 -0.66 22.98 -1 24 C-3.64 24 -6.28 24 -9 24 C-8.40227336 20.56506424 -7.52472216 17.55768504 -6.15234375 14.35546875 C-5.79462891 13.51435547 -5.43691406 12.67324219 -5.06835938 11.80664062 C-4.50858398 10.51016602 -4.50858398 10.51016602 -3.9375 9.1875 C-3.37192383 7.86202148 -3.37192383 7.86202148 -2.79492188 6.50976562 C-1.86751446 4.33798876 -0.93576366 2.16818633 0 0 Z M26 7 C26 8.32 26 9.64 26 11 C27.65 11 29.3 11 31 11 C31 9.68 31 8.36 31 7 C29.35 7 27.7 7 26 7 Z M4 10 C3.67 10.99 3.34 11.98 3 13 C3.66 13 4.32 13 5 13 C4.67 12.01 4.34 11.02 4 10 Z " fill="#000000" transform="translate(93,35)"/>
<path d="M0 0 C2.64 0 5.28 0 8 0 C8.99 2.97 9.98 5.94 11 9 C12.99097846 6.01353231 13.94124926 3.40312738 15 0 C17.64 0 20.28 0 23 0 C23.99 3.3 24.98 6.6 26 10 C27.32 6.7 28.64 3.4 30 0 C32.31 0 34.62 0 37 0 C36.38100727 5.35991428 35.15303188 10.24587823 33.5 15.375 C33.27441406 16.09816406 33.04882812 16.82132813 32.81640625 17.56640625 C31.13699777 22.86300223 31.13699777 22.86300223 30 24 C27.32941149 24.14115161 24.67567762 24.04247107 22 24 C21.01 21.03 20.02 18.06 19 15 C17.02 19.455 17.02 19.455 15 24 C12.36 24 9.72 24 7 24 C5.82599412 20.56496228 4.66206791 17.12659286 3.5 13.6875 C3.16613281 12.71103516 2.83226562 11.73457031 2.48828125 10.72851562 C2.17246094 9.79072266 1.85664062 8.85292969 1.53125 7.88671875 C1.23798828 7.02264404 0.94472656 6.15856934 0.64257812 5.26831055 C0 3 0 3 0 0 Z " fill="#000000" transform="translate(48,35)"/>
<path d="M0 0 C-0.33 1.98 -0.66 3.96 -1 6 C-4.47823115 7.15941038 -6.45895578 6.70820884 -10 6 C-9.37351562 6.25394531 -8.74703125 6.50789063 -8.1015625 6.76953125 C-7.28429688 7.11371094 -6.46703125 7.45789062 -5.625 7.8125 C-4.40683594 8.31716797 -4.40683594 8.31716797 -3.1640625 8.83203125 C-1 10 -1 10 1 13 C0.93064501 16.88387927 0.86399525 19.13600475 -1.9375 21.9375 C-7.31995124 23.80488104 -12.71077042 23.73255347 -18.125 22 C-18.74375 21.67 -19.3625 21.34 -20 21 C-19.34 19.02 -18.68 17.04 -18 15 C-14.7 15.33 -11.4 15.66 -8 16 C-9.44375 15.38125 -10.8875 14.7625 -12.375 14.125 C-15.15226256 12.93474462 -16.84733158 12.15266842 -19 10 C-19.52140959 5.97769747 -19.64520699 3.86769216 -17.1875 0.5625 C-11.80381217 -2.07656266 -5.65434014 -1.88478005 0 0 Z " fill="#000000" transform="translate(37,36)"/>
<path d="M0 0 C2.64 0 5.28 0 8 0 C8 7.92 8 15.84 8 24 C5.36 24 2.72 24 0 24 C0 16.08 0 8.16 0 0 Z " fill="#000000" transform="translate(39,35)"/>
</svg>